# xmcd
#
# Track frame offsets:
#	150
#	19157
#	48177
#	64875
#	84925
#	101810
#	119415
#	143090
#	160942
#	182570
#	204190
#
# Disc length: 3017 seconds
#
# Revision: 1
# Processed by: cddbd v1.4PL0 Copyright (c) Steve Scherf et al.
# Submitted via: audiograbber 1.82.02
#
DISCID=8c0bc70b
DTITLE=Jeff Healey - Hell To Play
DYEAR=1990
DGENRE=Blues
TTITLE0=Full Circle
TTITLE1=I Think I Love You Too Much
TTITLE2=I Can't Get My Hand On You
TTITLE3=How Long Can A Man Be Strong
TTITLE4=Let It All Go
TTITLE5=Hell To Play
TTITLE6=While My Guitar Gently Weeps
TTITLE7=Something To Hold On To
TTITLE8=How Much
TTITLE9=Highway Of Dreams
TTITLE10=Life Beyond The Sky
EXTD=
EXTT0=
EXTT1=
EXTT2=
EXTT3=
EXTT4=
EXTT5=
EXTT6=
EXTT7=
EXTT8=
EXTT9=
EXTT10=
PLAYORDER=
